<svg id="visual" viewBox="0 0 900 600" width="900" height="600" xmlns="http://www.w3.org/2000/svg" xmlns:xlink="http://www.w3.org/1999/xlink" version="1.1"><rect x="0" y="0" width="900" height="600" fill="#2596be"></rect><path d="M838 0L807 67L849 133L842 200L812 267L815 333L846 400L833 467L824 533L808 600L0 600L0 533L0 467L0 400L0 333L0 267L0 200L0 133L0 67L0 0Z" fill="#2596be"></path><path d="M742 0L743 67L759 133L781 200L747 267L752 333L780 400L744 467L743 533L768 600L0 600L0 533L0 467L0 400L0 333L0 267L0 200L0 133L0 67L0 0Z" fill="#1c92be"></path><path d="M698 0L696 67L716 133L717 200L670 267L673 333L698 400L687 467L678 533L700 600L0 600L0 533L0 467L0 400L0 333L0 267L0 200L0 133L0 67L0 0Z" fill="#138ebd"></path><path d="M597 0L630 67L642 133L604 200L621 267L602 333L622 400L636 467L639 533L628 600L0 600L0 533L0 467L0 400L0 333L0 267L0 200L0 133L0 67L0 0Z" fill="#0989bc"></path><path d="M568 0L578 67L543 133L579 200L534 267L557 333L535 400L559 467L571 533L579 600L0 600L0 533L0 467L0 400L0 333L0 267L0 200L0 133L0 67L0 0Z" fill="#0285bc"></path><path d="M499 0L480 67L499 133L490 200L471 267L462 333L495 400L492 467L497 533L481 600L0 600L0 533L0 467L0 400L0 333L0 267L0 200L0 133L0 67L0 0Z" fill="#0080bb"></path><path d="M412 0L390 67L440 133L440 200L437 267L407 333L406 400L401 467L415 533L409 600L0 600L0 533L0 467L0 400L0 333L0 267L0 200L0 133L0 67L0 0Z" fill="#007cb9"></path><path d="M365 0L365 67L354 133L374 200L326 267L328 333L338 400L371 467L348 533L371 600L0 600L0 533L0 467L0 400L0 333L0 267L0 200L0 133L0 67L0 0Z" fill="#0077b8"></path><path d="M265 0L277 67L255 133L291 200L287 267L302 333L301 400L263 467L286 533L260 600L0 600L0 533L0 467L0 400L0 333L0 267L0 200L0 133L0 67L0 0Z" fill="#0372b6"></path><path d="M231 0L208 67L189 133L194 200L189 267L199 333L211 400L196 467L230 533L193 600L0 600L0 533L0 467L0 400L0 333L0 267L0 200L0 133L0 67L0 0Z" fill="#0b6db4"></path><path d="M150 0L139 67L132 133L140 200L135 267L146 333L139 400L126 467L118 533L129 600L0 600L0 533L0 467L0 400L0 333L0 267L0 200L0 133L0 67L0 0Z" fill="#1468b2"></path><path d="M45 0L87 67L57 133L89 200L98 267L83 333L54 400L57 467L90 533L45 600L0 600L0 533L0 467L0 400L0 333L0 267L0 200L0 133L0 67L0 0Z" fill="#1c63af"></path></svg>