<svg id="visual" viewBox="0 0 1300 10" width="1300" height="10" xmlns="http://www.w3.org/2000/svg" xmlns:xlink="http://www.w3.org/1999/xlink" version="1.1"><rect x="0" y="0" width="1300" height="10" fill="#000321"></rect><path d="M788 0L716 0L716 0L905 0L905 1L789 1L789 1L833 1L833 2L857 2L857 2L613 2L613 3L818 3L818 3L853 3L853 4L673 4L673 4L760 4L760 5L741 5L741 5L654 5L654 5L845 5L845 6L794 6L794 6L607 6L607 7L649 7L649 7L680 7L680 8L658 8L658 8L856 8L856 9L895 9L895 9L614 9L614 10L715 10L715 10L0 10L0 10L0 10L0 9L0 9L0 9L0 9L0 8L0 8L0 8L0 8L0 7L0 7L0 7L0 7L0 6L0 6L0 6L0 6L0 5L0 5L0 5L0 5L0 5L0 5L0 4L0 4L0 4L0 4L0 3L0 3L0 3L0 3L0 2L0 2L0 2L0 2L0 1L0 1L0 1L0 1L0 0L0 0L0 0L0 0Z" fill="#2d9aff"></path><path d="M392 0L366 0L366 0L348 0L348 1L460 1L460 1L525 1L525 2L469 2L469 2L472 2L472 3L347 3L347 3L394 3L394 4L363 4L363 4L445 4L445 5L524 5L524 5L556 5L556 5L324 5L324 6L502 6L502 6L470 6L470 7L344 7L344 7L491 7L491 8L493 8L493 8L335 8L335 9L317 9L317 9L345 9L345 10L394 10L394 10L0 10L0 10L0 10L0 9L0 9L0 9L0 9L0 8L0 8L0 8L0 8L0 7L0 7L0 7L0 7L0 6L0 6L0 6L0 6L0 5L0 5L0 5L0 5L0 5L0 5L0 4L0 4L0 4L0 4L0 3L0 3L0 3L0 3L0 2L0 2L0 2L0 2L0 1L0 1L0 1L0 1L0 0L0 0L0 0L0 0Z" fill="#4dade6"></path></svg>