<svg id="visual" viewBox="0 0 1300 300" width="1300" height="300" xmlns="http://www.w3.org/2000/svg" xmlns:xlink="http://www.w3.org/1999/xlink" version="1.1"><path d="M0 112L27.2 105C54.3 98 108.7 84 162.8 83.5C217 83 271 96 325.2 103C379.3 110 433.7 111 487.8 116C542 121 596 130 650.2 133.5C704.3 137 758.7 135 812.8 122C867 109 921 85 975.2 76C1029.3 67 1083.7 73 1137.8 80.5C1192 88 1246 97 1273 101.5L1300 106L1300 0L1273 0C1246 0 1192 0 1137.8 0C1083.7 0 1029.3 0 975.2 0C921 0 867 0 812.8 0C758.7 0 704.3 0 650.2 0C596 0 542 0 487.8 0C433.7 0 379.3 0 325.2 0C271 0 217 0 162.8 0C108.7 0 54.3 0 27.2 0L0 0Z" fill="#001b98"></path><path d="M0 247L27.2 240C54.3 233 108.7 219 162.8 218.5C217 218 271 231 325.2 230.5C379.3 230 433.7 216 487.8 208C542 200 596 198 650.2 208C704.3 218 758.7 240 812.8 243C867 246 921 230 975.2 224C1029.3 218 1083.7 222 1137.8 224.5C1192 227 1246 228 1273 228.5L1300 229L1300 104L1273 99.5C1246 95 1192 86 1137.8 78.5C1083.7 71 1029.3 65 975.2 74C921 83 867 107 812.8 120C758.7 133 704.3 135 650.2 131.5C596 128 542 119 487.8 114C433.7 109 379.3 108 325.2 101C271 94 217 81 162.8 81.5C108.7 82 54.3 96 27.2 103L0 110Z" fill="#0c40ca"></path><path d="M0 301L27.2 301C54.3 301 108.7 301 162.8 301C217 301 271 301 325.2 301C379.3 301 433.7 301 487.8 301C542 301 596 301 650.2 301C704.3 301 758.7 301 812.8 301C867 301 921 301 975.2 301C1029.3 301 1083.7 301 1137.8 301C1192 301 1246 301 1273 301L1300 301L1300 227L1273 226.5C1246 226 1192 225 1137.8 222.5C1083.7 220 1029.3 216 975.2 222C921 228 867 244 812.8 241C758.7 238 704.3 216 650.2 206C596 196 542 198 487.8 206C433.7 214 379.3 228 325.2 228.5C271 229 217 216 162.8 216.5C108.7 217 54.3 231 27.2 238L0 245Z" fill="#0066ff"></path></svg>